<?xml version="1.0" standalone="no"?>
<!DOCTYPE svg PUBLIC "-//W3C//DTD SVG 20010904//EN"
 "http://www.w3.org/TR/2001/REC-SVG-20010904/DTD/svg10.dtd">
<svg version="1.0" xmlns="http://www.w3.org/2000/svg"
 width="677.000000pt" height="369.000000pt" viewBox="0 0 677.000000 369.000000"
 preserveAspectRatio="xMidYMid meet">

<g transform="translate(0.000000,369.000000) scale(0.100000,-0.100000)"
fill="#000000" stroke="none">
<path d="M2861 3330 c-29 -11 -68 -28 -87 -39 -35 -21 -227 -71 -272 -71 -52
0 -54 -15 -6 -39 l47 -22 -63 -37 c-34 -20 -91 -67 -126 -105 -84 -88 -85
-108 -4 -67 22 11 40 16 40 11 0 -5 -11 -33 -25 -62 -13 -30 -31 -99 -40 -153
-9 -55 -21 -108 -26 -119 -14 -26 -3 -34 19 -14 10 10 21 17 24 17 4 0 11 -23
17 -52 6 -28 20 -71 31 -95 10 -24 24 -68 29 -98 13 -67 29 -99 76 -149 35
-36 37 -41 32 -87 -6 -45 3 -63 18 -39 11 18 25 10 25 -15 0 -16 -6 -25 -15
-25 -9 0 -25 -15 -36 -34 -12 -20 -34 -40 -52 -46 -18 -7 -56 -40 -86 -73 -46
-52 -79 -75 -205 -145 -83 -46 -203 -110 -266 -142 -63 -32 -123 -66 -132 -77
-54 -59 -116 -321 -126 -533 -8 -144 -8 -145 -45 -205 -34 -56 -37 -67 -47
-184 -6 -68 -9 -130 -6 -137 5 -12 299 -14 1816 -14 1230 0 1818 3 1831 10 10
6 19 18 19 26 0 8 11 25 25 38 13 13 39 56 56 97 144 341 291 688 329 774 53
120 60 140 60 161 0 33 -22 41 -125 48 -49 4 -146 11 -215 17 -336 27 -585 37
-610 26 -33 -16 -48 -48 -195 -397 -31 -74 -62 -148 -69 -165 -125 -282 -194
-441 -207 -478 -11 -31 -18 -37 -41 -37 -23 0 -28 4 -28 23 0 26 -88 116 -177
180 -47 34 -59 38 -150 47 -54 5 -110 10 -125 10 -24 0 -32 9 -58 60 -16 33
-30 75 -30 93 0 20 -11 50 -25 71 -18 26 -23 44 -19 62 5 18 0 35 -16 56 -14
20 -28 61 -37 112 -23 138 -43 176 -109 209 -30 16 -31 18 -48 144 -35 261
-31 409 14 433 10 5 31 35 46 65 14 31 31 58 37 62 16 10 68 133 61 144 -7 12
26 79 38 79 5 0 8 -12 8 -27 0 -53 16 -58 34 -12 29 73 41 187 29 270 -7 41
-10 76 -7 78 2 3 24 -5 48 -16 24 -12 61 -25 82 -29 l39 -7 -45 49 c-25 27
-74 85 -108 129 -34 44 -75 96 -91 116 l-30 36 63 11 c111 21 163 62 78 62
-40 0 -167 29 -247 55 -29 10 -65 32 -86 54 -105 108 -360 164 -508 111z m361
-58 c10 -4 -27 -7 -81 -7 -55 0 -97 3 -94 8 5 9 152 8 175 -1z m-232 -20 c0
-5 -22 -21 -50 -36 -113 -62 -231 -209 -261 -327 -7 -27 -16 -49 -21 -49 -38
0 60 208 136 289 62 66 129 111 194 130 1 1 2 -3 2 -7z m475 -110 c44 -13 111
-31 149 -38 65 -13 95 -24 67 -24 -56 0 -303 70 -326 93 -7 7 -3 7 10 2 11 -4
56 -19 100 -33z m217 -287 l59 -80 -48 50 c-52 55 -153 181 -153 192 0 13 82
-81 142 -162z m-1012 -75 c0 -29 -4 -40 -15 -40 -11 0 -15 11 -15 40 0 29 4
40 15 40 11 0 15 -11 15 -40z m846 -105 c-23 -58 -71 -131 -96 -145 -15 -8 -9
4 19 41 23 30 49 82 63 126 18 56 24 67 26 47 2 -15 -4 -46 -12 -69z m142 -60
c1 -33 -3 -78 -7 -100 -5 -30 -8 -13 -8 65 0 58 -3 126 -6 150 l-6 45 14 -50
c7 -27 13 -77 13 -110z m-1038 93 c0 -7 -5 -20 -10 -28 -8 -12 -10 -9 -10 13
0 15 5 27 10 27 6 0 10 -6 10 -12z m719 -37 c-12 -22 -42 -59 -67 -83 l-45
-43 47 58 c25 32 53 69 62 83 26 38 28 28 3 -15z m-119 -25 c0 -6 -104 -82
-130 -95 -21 -10 -20 -8 5 11 16 13 48 37 70 55 37 29 55 39 55 29z m-261 -42
c-18 -20 -43 -40 -54 -45 -11 -6 3 10 30 35 60 55 72 60 24 10z m547 -99 c-5
-18 -15 -23 -52 -28 -30 -3 -54 -13 -68 -27 l-21 -22 58 7 c52 6 58 5 55 -10
-4 -23 -118 -28 -118 -5 0 11 -6 8 -18 -7 -14 -18 -22 -21 -46 -15 -28 8 -27
8 30 37 32 16 85 57 119 90 l60 60 3 -29 c2 -16 1 -39 -2 -51z m-336 46 c-6
-13 -21 -21 -37 -21 -26 0 -26 0 8 23 39 27 45 27 29 -2z m114 -38 c-10 -26
-24 -57 -31 -68 -13 -19 -14 -18 -8 7 5 19 2 29 -12 36 -16 10 -14 14 22 45
22 19 42 33 44 32 2 -2 -5 -25 -15 -52z m-349 3 c-14 -32 -18 -36 -43 -30 -15
4 -28 8 -29 9 -2 1 16 15 40 32 23 16 43 29 45 28 1 -1 -5 -18 -13 -39z m182
-40 c-2 -6 -32 -12 -72 -14 -70 -3 -78 5 -23 23 37 13 100 7 95 -9z m73 -22
c0 -2 -9 -4 -21 -4 -11 0 -18 4 -14 10 5 8 35 3 35 -6z m-295 -50 c63 -25 65
-27 65 -63 0 -52 20 -84 60 -98 39 -13 178 -17 196 -5 7 4 25 30 41 57 47 80
51 75 99 -112 5 -18 -1 -25 -36 -43 -54 -28 -44 -38 15 -16 45 18 49 22 45 64
-1 14 4 22 14 22 22 0 20 -20 -7 -82 -24 -54 -151 -259 -181 -290 -22 -24 -92
-23 -139 2 -40 21 -194 134 -265 194 -52 43 -66 45 -50 9 19 -44 99 -174 135
-220 28 -36 40 -43 69 -43 39 0 42 -10 14 -55 -11 -18 -21 -44 -22 -59 -5 -57
-22 -49 -124 57 -110 113 -217 235 -234 267 -8 15 -5 40 12 105 20 79 24 85
48 85 19 0 30 -9 45 -37 31 -57 48 -55 30 3 -13 45 -13 50 4 69 35 37 65 107
69 162 5 62 7 63 97 27z m314 1 c36 -18 38 -34 11 -92 -22 -49 -45 -58 -125
-50 -86 9 -96 18 -93 85 2 45 6 56 18 54 84 -20 131 -25 141 -15 8 8 -2 13
-37 19 -85 12 -96 25 -17 20 39 -3 85 -12 102 -21z m239 -35 c-10 -6 -25 -7
-40 -1 -20 9 -18 10 17 10 31 0 36 -2 23 -9z m66 -13 c18 -13 18 -15 -2 -58
l-20 -44 -1 35 c-1 19 -4 45 -7 58 -7 25 4 28 30 9z m-74 -23 c0 -6 -3 -32 -6
-58 -6 -38 -10 -46 -28 -46 -11 0 -26 4 -33 8 -16 10 -26 57 -19 87 5 21 11
24 46 22 22 -1 40 -7 40 -13z m-816 -19 c-7 -16 -35 -35 -53 -35 -5 0 0 11 12
25 24 27 50 34 41 10z m833 -72 c-3 -10 -5 -4 -5 12 0 17 2 24 5 18 2 -7 2
-21 0 -30z m-17 -83 c-16 -40 -23 -33 -9 9 6 18 14 30 17 27 2 -3 -1 -19 -8
-36z m-860 -208 c19 -31 101 -124 182 -206 118 -119 145 -151 134 -160 -14
-11 -88 -130 -120 -193 -9 -18 -20 -33 -25 -33 -13 0 -161 229 -161 249 0 9
-4 21 -9 26 -10 13 -75 178 -90 230 -9 35 -8 45 16 92 15 29 30 53 33 53 3 0
21 -26 40 -58z m803 -262 c8 -58 12 -108 8 -113 -7 -7 -235 154 -281 199 l-25
24 56 0 c66 0 76 7 125 85 20 33 49 75 63 94 l26 35 7 -110 c3 -60 13 -156 21
-214z m-252 -45 c36 -71 78 -160 94 -198 l28 -68 -28 -29 c-34 -35 -53 -40
-31 -8 23 32 20 56 -14 134 -17 38 -35 78 -39 89 -5 11 -17 39 -26 63 -13 31
-21 39 -28 30 -6 -9 -7 -8 -3 5 3 10 -5 39 -18 65 -13 26 -27 58 -31 72 l-7
25 19 -25 c11 -14 49 -83 84 -155z m-81 -39 c30 -178 26 -192 -24 -91 -16 31
-39 64 -51 73 l-22 18 28 49 c16 28 29 66 30 85 1 33 1 33 9 10 5 -14 18 -78
30 -144z m151 72 c38 -29 85 -64 104 -78 76 -52 95 -72 95 -96 0 -13 -3 -24
-8 -24 -4 0 -34 22 -67 49 -59 49 -87 58 -114 37 -12 -9 -12 -8 -1 11 13 20
11 25 -30 67 -40 40 -68 86 -54 86 3 0 37 -24 75 -52z m1814 -28 c72 -6 245
-17 385 -25 140 -8 259 -20 264 -25 10 -10 -23 -103 -85 -237 -16 -34 -29 -65
-29 -68 0 -7 -40 -101 -86 -203 -13 -29 -24 -55 -24 -59 0 -3 -9 -24 -20 -47
-18 -39 -123 -287 -149 -353 -17 -43 -44 -65 -73 -61 -23 4 -23 5 5 16 15 6
27 17 27 23 0 6 13 39 28 73 35 74 67 148 68 156 0 3 12 30 26 60 14 30 29 66
33 80 4 14 13 34 20 45 6 11 21 45 33 75 22 61 97 239 131 312 11 26 21 50 21
54 0 4 10 27 21 52 12 24 18 47 13 52 -5 4 -79 13 -164 19 -356 26 -652 51
-661 56 -24 15 -5 25 39 20 26 -3 106 -10 177 -15z m-2014 -217 c-6 -31 -11
-58 -11 -60 0 -2 -5 -3 -10 -3 -11 0 -5 104 6 140 5 13 7 12 15 -3 7 -11 6
-36 0 -74z m-362 -45 c101 -293 185 -567 177 -576 -3 -2 -20 45 -40 105 -19
59 -54 160 -77 223 -22 63 -51 144 -64 180 -13 36 -33 89 -44 118 -20 50 -20
72 -2 72 4 0 27 -55 50 -122z m812 97 c15 10 46 -13 62 -47 9 -18 21 -74 27
-123 10 -72 17 -95 36 -116 l25 -26 -15 -98 c-16 -102 -29 -137 -33 -82 -2 24
0 28 7 17 7 -11 10 -8 10 16 0 50 -12 124 -20 124 -4 0 -15 -18 -24 -40 -9
-22 -17 -40 -18 -40 -2 0 -3 53 -4 118 0 65 -6 135 -13 157 -7 22 -19 60 -25
84 -11 37 -12 12 -8 -167 5 -216 1 -255 -21 -233 -8 8 -11 50 -9 139 1 87 -1
122 -8 112 -6 -9 -10 -10 -10 -3 0 6 5 15 11 18 5 4 9 17 8 28 -3 43 3 192 8
174 2 -9 9 -15 14 -12z m-550 -320 c-2 -267 -10 -355 -30 -355 -11 0 -21 15
-30 48 -8 26 -52 160 -98 297 -47 138 -87 261 -90 275 -6 27 -9 30 73 -82 l27
-38 24 35 c13 19 23 36 23 39 0 3 10 21 22 42 l21 36 30 -58 30 -59 -2 -180z
m199 120 c9 -50 50 -394 50 -421 0 -8 -8 -14 -19 -14 -14 0 -20 10 -24 38 -13
88 -49 269 -72 364 -23 95 -25 140 -8 188 7 22 62 -94 73 -155z m-95 -12 c9
-43 27 -127 40 -188 13 -60 26 -132 30 -160 3 -27 9 -58 12 -68 3 -14 0 -18
-12 -15 -12 2 -18 16 -20 55 -2 28 -11 80 -19 115 -18 73 -66 312 -66 328 0 5
4 10 9 10 5 0 17 -35 26 -77z m224 -14 c44 -39 44 -40 42 -102 -3 -89 -29
-319 -37 -326 -4 -3 -4 32 0 79 4 47 9 130 13 185 l6 100 -42 45 c-65 70 -53
84 18 19z m111 -53 c-7 -7 -13 -7 -20 0 -6 6 -3 10 10 10 13 0 16 -4 10 -10z
m1790 -21 c21 -26 8 -118 -24 -164 -54 -78 -146 -75 -146 5 0 59 48 149 88
166 30 12 69 8 82 -7z m-1502 -130 c7 -14 12 -38 12 -53 0 -15 11 -49 25 -77
13 -27 25 -53 25 -57 0 -19 -49 -5 -74 21 -24 25 -28 38 -28 88 -1 94 17 129
40 78z m-1114 -61 c3 -8 2 -12 -4 -9 -6 3 -10 10 -10 16 0 14 7 11 14 -7z
m916 -9 c0 -14 -4 -25 -10 -25 -5 0 -10 7 -10 15 0 8 -5 15 -11 15 -5 0 -7 5
-4 10 12 20 35 10 35 -15z m20 -100 c0 -46 -3 -55 -18 -55 -15 0 -17 7 -14 43
4 53 9 67 22 67 6 0 10 -24 10 -55z m399 -56 l116 -11 65 -48 c90 -67 147
-127 133 -141 -18 -18 -110 37 -178 108 -68 71 -94 81 -209 82 -69 1 -54 -7
45 -24 l84 -15 79 -81 c59 -62 75 -83 65 -90 -8 -5 -16 -9 -19 -9 -3 0 -44 36
-91 79 l-87 78 -87 8 c-47 4 -89 5 -91 2 -7 -7 89 -27 128 -27 24 0 45 -14 97
-62 36 -34 68 -65 69 -70 9 -22 -61 -5 -107 27 -72 50 -139 49 -244 -1 -90
-42 -180 -60 -259 -50 -65 8 -63 6 -59 109 2 58 16 97 33 98 7 0 94 11 193 23
99 13 187 24 194 25 8 0 67 -4 130 -10z m-685 -23 c-6 -15 -33 -21 -129 -31
-33 -3 -100 -10 -150 -15 -49 -6 -155 -17 -235 -25 -80 -9 -156 -17 -170 -20
-22 -4 -23 -3 -5 5 11 5 121 23 245 40 124 18 261 37 305 45 113 18 146 18
139 1z m122 -23 c-13 -54 -18 -189 -8 -225 12 -43 5 -48 -69 -48 -52 0 -48 -5
-64 75 -6 28 13 153 28 184 10 21 22 27 57 32 25 3 49 7 54 7 4 1 5 -10 2 -25z
m540 -162 l24 -19 -23 -6 c-12 -3 -69 -6 -127 -6 l-105 0 50 24 c64 31 146 34
181 7z m344 -66 c-8 -9 -16 -12 -19 -6 -3 5 -17 11 -31 14 -16 3 -9 5 19 6 38
1 42 -1 31 -14z m1025 -35 c-18 -20 -45 -27 -45 -12 0 15 24 32 44 32 18 0 19
-1 1 -20z"/>
<path d="M3115 2020 c-4 -6 24 -10 77 -9 71 1 77 2 43 10 -56 11 -113 11 -120
-1z"/>
<path d="M4436 2219 c-55 -43 -23 -129 49 -129 46 0 75 29 75 74 0 39 -37 76
-75 76 -12 0 -34 -9 -49 -21z m92 -5 c27 -18 30 -69 5 -96 -20 -22 -70 -23
-95 -1 -39 35 -8 113 45 113 12 0 33 -7 45 -16z"/>
<path d="M4445 2200 c-4 -7 -1 -16 6 -21 17 -10 26 8 11 23 -6 6 -12 6 -17 -2z"/>
<path d="M4500 2170 c0 -5 9 -10 20 -10 11 0 20 5 20 10 0 6 -9 10 -20 10 -11
0 -20 -4 -20 -10z"/>
<path d="M4430 2163 c1 -31 88 -53 98 -25 2 7 -2 12 -9 11 -8 -1 -27 3 -42 9
-33 14 -47 15 -47 5z"/>
<path d="M3832 2033 c-36 -17 -82 -67 -82 -88 0 -7 -7 -18 -15 -25 -21 -18
-19 -37 12 -99 50 -97 135 -127 243 -86 69 27 73 33 74 127 1 72 -2 87 -22
116 -47 65 -140 90 -210 55z m134 -12 c56 -25 88 -73 88 -130 1 -55 -23 -64
-36 -14 -9 36 -50 55 -71 34 -6 -6 -8 -11 -4 -11 30 0 57 -18 51 -34 -4 -11
-21 -9 -84 13 -74 24 -95 41 -70 56 6 4 18 1 26 -6 19 -16 30 -4 14 16 -16 19
-30 19 -66 0 -33 -17 -54 -19 -54 -6 0 20 46 65 84 82 51 23 71 23 122 0z
m-180 -136 c-17 -26 -40 -33 -51 -15 -9 15 12 38 38 42 31 5 32 2 13 -27z
m130 -25 c43 -16 73 -29 65 -30 -21 0 -155 41 -165 51 -18 17 19 9 100 -21z
m-112 -39 c20 -39 64 -55 131 -48 39 4 55 2 58 -8 13 -32 -109 -48 -163 -20
-35 18 -70 61 -70 86 0 29 28 23 44 -10z m243 -35 c-2 -6 -11 -12 -20 -14 -14
-3 -17 4 -17 35 l1 38 20 -24 c11 -13 18 -29 16 -35z m-154 17 c26 -14 28 -18
14 -21 -24 -5 -78 18 -71 29 8 13 21 11 57 -8z"/>
<path d="M3814 1985 c-16 -12 -17 -14 -2 -15 23 0 48 11 48 21 0 14 -24 11
-46 -6z"/>
<path d="M4015 1916 c10 -14 22 -26 27 -26 13 0 -15 43 -31 48 -9 3 -7 -5 4
-22z"/>
<path d="M4686 1934 c-35 -35 -6 -105 44 -104 8 1 0 7 -17 15 -26 11 -33 20
-33 43 0 15 5 33 12 40 20 20 65 14 82 -10 9 -12 16 -17 16 -11 0 21 -31 43
-60 43 -16 0 -36 -7 -44 -16z"/>
<path d="M4700 1910 c0 -5 7 -10 16 -10 8 0 12 5 9 10 -3 6 -10 10 -16 10 -5
0 -9 -4 -9 -10z"/>
<path d="M4746 1901 c-3 -5 1 -11 9 -15 9 -3 15 0 15 9 0 16 -16 20 -24 6z"/>
<path d="M4781 1883 c-1 -6 -8 -19 -17 -27 -8 -9 -11 -16 -6 -16 15 0 34 28
29 42 -4 9 -6 9 -6 1z"/>
<path d="M4715 1870 c28 -12 37 -12 30 0 -3 6 -16 10 -28 9 -21 0 -21 -1 -2
-9z"/>
<path d="M4317 1810 c-19 -16 -40 -45 -47 -62 -6 -18 -16 -41 -21 -50 -5 -10
-9 -25 -9 -33 0 -25 106 -125 132 -125 18 1 15 5 -17 21 -22 11 -48 30 -57 42
-36 46 -14 51 30 7 25 -24 39 -30 74 -30 24 0 53 7 64 15 24 18 31 18 38 0 4
-10 -5 -22 -27 -35 -18 -12 -25 -20 -16 -20 9 0 34 13 57 29 36 27 41 35 47
85 4 33 3 68 -5 90 -14 42 -72 96 -103 95 -20 -1 -20 -2 -2 -6 49 -12 105 -91
105 -148 0 -22 -4 -25 -20 -20 -24 8 -26 -2 -4 -26 18 -19 11 -39 -12 -39 -12
0 -15 10 -14 38 3 69 -21 102 -64 86 -26 -10 -18 -24 14 -24 20 0 30 -5 30
-15 0 -8 -2 -15 -5 -15 -4 0 -85 16 -132 26 -13 2 -23 12 -23 20 0 13 7 15 31
10 27 -5 30 -4 19 9 -16 19 -59 19 -66 0 -9 -21 -34 -19 -34 4 0 22 61 84 92
93 l23 6 -22 1 c-12 1 -38 -12 -56 -29z m-17 -116 c0 -16 -23 -44 -35 -44 -18
0 -20 36 -2 43 17 8 37 8 37 1z m113 -24 c37 -7 70 -16 73 -21 3 -5 0 -9 -6
-9 -27 0 -156 33 -165 42 -7 7 -3 9 10 5 11 -3 50 -11 88 -17z m3 -65 c18 -14
18 -14 -8 -15 -32 0 -58 9 -58 21 0 14 44 10 66 -6z"/>
<path d="M4323 1780 c-13 -5 -23 -14 -23 -19 0 -7 9 -6 25 1 14 6 25 15 25 20
0 9 2 9 -27 -2z"/>
<path d="M4505 1730 c10 -11 20 -18 23 -15 7 6 -18 35 -31 35 -5 0 -2 -9 8
-20z"/>
<path d="M3877 1509 c-20 -12 -52 -77 -43 -87 3 -3 6 0 6 7 0 7 4 10 9 7 5 -4
12 0 14 6 3 8 6 6 6 -5 1 -10 -6 -20 -14 -23 -25 -10 -18 -49 11 -63 15 -6 29
-9 32 -6 3 3 0 5 -6 5 -7 0 -12 4 -12 9 0 6 17 8 38 5 20 -2 31 -2 24 2 -15 7
-6 24 14 24 9 0 12 -5 8 -12 -4 -7 5 -2 19 11 21 19 27 21 27 8 0 -8 -12 -25
-26 -36 -15 -12 -22 -21 -17 -21 11 0 42 35 61 68 11 20 10 28 -8 58 -12 19
-30 39 -40 44 -24 13 -80 12 -103 -1z m89 -15 c-4 -11 -2 -15 8 -11 8 3 20 -1
27 -9 11 -14 8 -15 -24 -9 -24 5 -37 3 -37 -4 0 -6 8 -8 18 -4 33 11 -2 -15
-40 -32 -38 -15 -53 -5 -20 14 15 9 14 11 -8 12 -14 1 -28 1 -32 0 -14 -2 -8
12 14 36 27 29 105 34 94 7z m62 -63 c3 -8 -1 -12 -9 -9 -7 2 -15 10 -17 17
-3 8 1 12 9 9 7 -2 15 -10 17 -17z m-49 -5 c-2 -2 -18 -7 -34 -11 l-30 -6 30
14 c27 13 45 14 34 3z m-109 -48 c0 -16 -3 -19 -11 -11 -6 6 -8 16 -5 22 11
17 16 13 16 -11z"/>
<path d="M4251 1367 c-67 -23 -98 -104 -66 -171 18 -37 35 -48 35 -21 0 8 5
15 11 15 7 0 10 -12 7 -30 -5 -30 -4 -30 45 -30 65 0 101 23 126 79 18 42 18
46 3 50 -27 6 -34 25 -10 31 20 5 19 7 -14 43 -20 20 -44 37 -54 37 -14 0 -11
-4 11 -16 29 -15 45 -31 45 -46 0 -12 -38 -10 -45 2 -9 15 -45 -7 -45 -27 0
-14 2 -14 19 1 13 12 21 14 26 6 4 -6 5 -12 4 -14 -21 -15 -101 -66 -105 -66
-11 0 -2 24 14 36 15 12 15 13 1 14 -19 0 -43 -25 -36 -38 9 -13 -9 -35 -22
-28 -13 8 -15 36 -2 36 5 0 11 9 14 21 5 20 5 20 -15 2 -20 -18 -20 -18 -13
17 9 44 44 81 93 96 20 7 30 12 22 12 -8 1 -30 -4 -49 -11z m61 -143 c-30 -20
-56 -34 -58 -31 -6 5 87 67 101 67 5 0 -14 -16 -43 -36z m84 -20 c-4 -13 -21
-33 -39 -44 -32 -20 -97 -28 -97 -12 0 4 16 8 35 8 40 0 94 44 96 78 0 12 3
15 6 8 3 -7 2 -24 -1 -38z m-36 -4 c0 -12 -40 -34 -48 -26 -3 4 3 13 14 21 22
17 34 19 34 5z"/>
<path d="M3918 1333 c6 -2 18 -2 25 0 6 3 1 5 -13 5 -14 0 -19 -2 -12 -5z"/>
<path d="M4318 1333 c6 -2 18 -2 25 0 6 3 1 5 -13 5 -14 0 -19 -2 -12 -5z"/>
<path d="M4146 989 c-19 -15 -26 -29 -25 -52 0 -31 17 -84 18 -59 1 6 6 12 12
12 6 0 9 -7 6 -15 -5 -11 0 -13 26 -8 18 3 37 10 42 16 7 7 5 7 -4 2 -10 -5
-12 -4 -7 4 4 6 11 9 16 6 5 -3 12 0 16 6 4 8 9 7 16 -2 6 -10 7 -7 3 10 -5
16 -4 21 4 17 6 -4 11 -2 11 3 0 6 -7 11 -15 11 -8 0 -15 5 -15 11 0 6 8 8 18
5 9 -3 2 7 -16 24 -38 35 -69 38 -106 9z m68 -1 c-5 -8 -2 -9 9 -5 9 3 19 2
22 -3 4 -6 -5 -10 -19 -10 -14 0 -26 -4 -26 -10 0 -5 6 -7 14 -4 10 4 14 0 12
-11 -4 -24 -46 -46 -68 -34 -10 5 -18 5 -21 -1 -3 -6 -4 -5 -3 2 2 7 10 12 20
10 9 -2 16 2 16 8 0 5 -9 10 -20 10 -27 0 -25 25 2 44 27 19 73 22 62 4z"/>
</g>
</svg>
